<svg xmlns="http://www.w3.org/2000/svg" viewBox="0 0 1232 346" version="1.1"><path d="M 306.542 19.720 C 303.436 20.524, 300 23.102, 300 24.629 C 300 25.398, 299.595 26.809, 299.100 27.764 C 296.247 33.271, 292 44.613, 292 46.725 C 292 52.887, 298.161 57.722, 304.667 56.667 C 309.270 55.920, 310.470 54.814, 313.401 48.617 C 322.259 29.893, 321.699 21.376, 311.500 19.705 C 309.850 19.434, 307.619 19.441, 306.542 19.720 M 338.437 43.285 C 335.396 45.077, 328.552 50.384, 328.167 51.250 C 327.983 51.663, 327.459 52, 327.002 52 C 326.172 52, 323.926 53.743, 317.222 59.591 C 314.094 62.320, 313.687 63.223, 313.748 67.282 C 313.867 75.143, 319.246 79.410, 326.684 77.543 C 328.923 76.981, 336.172 72.124, 338 69.960 C 338.275 69.634, 340.707 67.866, 343.404 66.030 C 353.554 59.121, 355.954 54.383, 352.805 47.472 C 350.637 42.713, 343.127 40.524, 338.437 43.285 M 105.272 65.750 C 103.538 67.263, 101.441 70.525, 100.611 73 C 99.781 75.475, 98.141 79.975, 96.965 83 C 95.789 86.025, 94.475 89.909, 94.046 91.632 C 93.616 93.355, 92.916 95.327, 92.490 96.016 C 91.012 98.407, 89.002 111.542, 89.001 118.816 C 89 126.176, 89.983 129.429, 92.913 131.764 C 96.081 134.288, 111.347 140.663, 119.500 142.866 C 138.040 147.876, 141.293 148.661, 152.500 150.831 C 172.630 154.730, 180.327 155.428, 202.500 155.361 C 224.286 155.296, 236.956 154.248, 250.500 151.388 C 262.908 148.768, 276.411 144.919, 280.236 142.911 C 281.191 142.410, 282.419 142, 282.964 142 C 283.510 142, 287.357 140.408, 291.513 138.462 C 295.670 136.516, 300.067 134.472, 301.285 133.919 C 305.773 131.883, 308.001 130.271, 310.950 126.925 C 314.457 122.945, 314.810 119.261, 312.481 110.932 C 311.646 107.944, 310.473 103.700, 309.874 101.500 C 308.696 97.174, 306.586 91.272, 304.511 86.500 C 303.794 84.850, 301.970 80.350, 300.457 76.500 C 295.820 64.693, 290.245 61.647, 281.236 66 C 278.959 67.100, 276.378 68, 275.499 68 C 274.620 68, 272.686 68.598, 271.200 69.328 C 267.780 71.010, 256.498 73.535, 243 75.639 C 235.161 76.861, 225.531 77.275, 205 77.274 C 177.230 77.272, 166.283 76.328, 149 72.444 C 145.425 71.641, 141.568 70.987, 140.428 70.992 C 139.289 70.996, 136.364 70.378, 133.928 69.617 C 131.493 68.857, 127.475 67.686, 125 67.015 C 122.525 66.344, 119.306 65.166, 117.846 64.398 C 113.555 62.139, 108.829 62.647, 105.272 65.750 M 327.500 84.140 C 323.545 86.513, 322 89.213, 322 93.752 C 322 97.436, 322.532 98.695, 325.106 101.099 C 328.149 103.942, 328.456 104.004, 340.356 104.200 C 360.802 104.536, 361.655 104.310, 364.601 97.777 C 366.349 93.899, 366.345 93.682, 364.450 90.154 C 363.378 88.157, 361.150 85.861, 359.500 85.053 C 355.525 83.106, 330.417 82.389, 327.500 84.140 M 117.161 89.547 C 116.522 90.948, 116 92.733, 116 93.513 C 116 94.294, 115.366 96.410, 114.591 98.216 C 112.349 103.442, 110 111.992, 110 114.925 C 110 117.354, 110.659 117.846, 116.688 119.915 C 127.599 123.660, 150.072 129.266, 161 130.970 C 164.025 131.442, 168.525 132.276, 171 132.824 C 182.947 135.470, 223.266 134.983, 238 132.015 C 251.838 129.227, 258.801 127.654, 262.500 126.478 C 264.700 125.779, 268.525 124.629, 271 123.923 C 273.475 123.217, 279.141 120.899, 283.591 118.772 L 291.683 114.906 290.406 110.203 C 289.704 107.616, 288.163 103.025, 286.981 100 C 285.799 96.975, 284.579 93.600, 284.271 92.500 C 283.302 89.038, 282.018 88.047, 279.674 88.950 C 259.764 96.622, 223.251 100.107, 185 97.986 C 157.488 96.461, 141.408 93.953, 123.866 88.453 C 118.043 86.627, 118.527 86.548, 117.161 89.547 M 58 122.682 C 52.612 124.949, 51.134 134.419, 55.250 140.290 C 56.487 142.056, 57.837 143.650, 58.250 143.833 C 58.663 144.017, 59 144.567, 59 145.057 C 59 145.546, 61.925 150.679, 65.500 156.463 C 69.075 162.246, 72 167.396, 72 167.906 C 72 168.416, 72.338 168.983, 72.750 169.167 C 74.380 169.891, 89 193.045, 89 194.902 C 89 195.506, 89.398 196, 89.883 196 C 90.369 196, 91.031 196.787, 91.354 197.750 C 92.016 199.722, 93.914 202.773, 95.684 204.714 C 96.336 205.428, 97.154 206.909, 97.502 208.006 C 97.850 209.103, 98.554 210, 99.067 210 C 99.580 210, 100 210.443, 100 210.985 C 100 211.935, 105.819 221.981, 106.959 223 C 107.267 223.275, 108.405 225.188, 109.487 227.250 C 110.569 229.313, 111.802 231, 112.227 231 C 112.652 231, 113 231.480, 113 232.067 C 113 232.653, 114.077 234.566, 115.393 236.317 C 116.709 238.068, 118.632 241.075, 119.667 243 C 125.727 254.270, 128.102 256.515, 133.878 256.431 C 139.952 256.342, 143.075 253.515, 143.754 247.487 C 144.229 243.276, 143.797 242.213, 137.266 231.520 C 136.587 230.409, 135.747 228.713, 135.399 227.750 C 135.051 226.787, 134.424 226, 134.005 226 C 133.586 226, 132.683 224.650, 132 223 C 131.317 221.350, 130.362 220, 129.879 220 C 129.395 220, 129 219.494, 129 218.876 C 129 218.258, 127.313 215.208, 125.250 212.099 C 123.188 208.990, 120.610 204.771, 119.523 202.723 C 118.435 200.675, 117.198 199, 116.773 199 C 116.348 199, 116 198.492, 116 197.871 C 116 197.251, 114.200 194.106, 112 190.883 C 109.800 187.660, 108 184.774, 108 184.471 C 108 183.649, 103.618 177.552, 102.750 177.167 C 102.338 176.983, 102 176.425, 102 175.926 C 102 175.427, 98.400 169.160, 94 162 C 89.600 154.840, 86 148.536, 86 147.991 C 86 147.446, 85.652 147, 85.227 147 C 84.802 147, 83.569 145.313, 82.487 143.250 C 81.405 141.188, 80.279 139.275, 79.986 139 C 78.995 138.069, 73.663 129.696, 72.345 127 C 70.824 123.888, 68.691 122.681, 64.167 122.370 C 61.600 122.194, 58.825 122.335, 58 122.682" stroke="none" fill="#548cd4" fill-rule="evenodd"/><path d="M 190 27.080 C 180.601 28.108, 172.668 29.749, 167.500 31.733 C 162.714 33.571, 146.709 41.191, 146 41.969 C 145.725 42.271, 143.816 43.639, 141.757 45.009 C 139.698 46.379, 138.011 47.837, 138.007 48.250 C 138.003 48.663, 137.501 49, 136.892 49 C 135.627 49, 121 63.591, 121 64.852 C 121 65.308, 122.912 66.255, 125.250 66.957 C 127.588 67.660, 131.493 68.857, 133.928 69.617 C 140.723 71.739, 144.409 71.414, 146.597 68.500 C 147.630 67.125, 149.043 66, 149.737 66 C 150.432 66, 151 65.615, 151 65.145 C 151 64.072, 165.600 55, 167.327 55 C 168.027 55, 169.028 54.606, 169.550 54.124 C 170.072 53.642, 173.425 52.323, 177 51.193 C 204.169 42.607, 234.639 49.708, 256 69.605 L 259.500 72.865 264.500 71.499 C 269.305 70.186, 273.926 68.688, 278.788 66.866 C 280.585 66.192, 280.874 65.633, 280.135 64.254 C 278.621 61.431, 268.050 51.061, 263.856 48.286 C 261.735 46.882, 260 45.397, 260 44.984 C 260 44.571, 259.212 43.969, 258.250 43.646 C 256.548 43.074, 253.008 41.009, 252 39.999 C 251.122 39.119, 241.936 34.807, 236.630 32.784 C 228.989 29.870, 225.628 29.115, 213.038 27.484 C 200.602 25.874, 200.967 25.880, 190 27.080 M 292.500 138 C 288.100 140.136, 283.728 141.910, 282.785 141.942 C 280.833 142.008, 279 144.894, 279 147.900 C 279 149.018, 278.370 151.410, 277.601 153.216 C 276.831 155.022, 275.398 158.525, 274.416 161 C 271.815 167.555, 264.763 177.989, 258.744 184.189 C 252.915 190.193, 245.759 196, 244.189 196 C 243.627 196, 243.017 196.353, 242.833 196.784 C 242.448 197.692, 230.278 204, 228.914 204 C 227.408 204, 224.501 207.377, 223.104 210.749 C 221.961 213.507, 222.031 214.398, 223.647 217.698 C 226.015 222.537, 229.253 224.224, 235 223.614 C 240.240 223.058, 252.099 217.195, 260.574 210.971 C 269.047 204.748, 280.722 192.708, 284.605 186.188 C 284.868 185.746, 299.428 188.813, 302.199 189.894 C 303.464 190.388, 306.525 191.367, 309 192.070 C 311.475 192.773, 314.625 193.912, 316 194.600 C 317.375 195.288, 321.650 197.314, 325.500 199.103 C 329.350 200.891, 332.725 202.645, 333 203 C 333.275 203.355, 334.175 203.968, 335 204.362 C 344.605 208.949, 354.655 217.680, 358.513 224.790 C 359.620 226.831, 360.967 229.175, 361.506 230 C 362.997 232.281, 364.908 240.070, 364.941 244 C 364.983 249.093, 362.840 254.430, 359.105 258.535 C 355.552 262.439, 345.924 269, 343.748 269 C 343.007 269, 341.972 269.397, 341.450 269.881 C 340.168 271.070, 320.735 277.582, 314.500 278.912 C 311.750 279.499, 306.575 280.618, 303 281.399 C 299.425 282.180, 291.415 283.392, 285.199 284.092 C 275.940 285.135, 273.230 285.128, 270.199 284.056 C 262.389 281.292, 254.330 272.243, 254.747 266.706 C 254.827 265.642, 256.504 263.338, 258.474 261.586 C 262.141 258.323, 262.326 258.268, 282.500 254.426 C 291.876 252.640, 301.480 249.274, 308.430 245.338 C 310.669 244.071, 313.440 242.615, 314.589 242.103 C 320.586 239.431, 324.099 230.242, 320.500 226.643 C 319.675 225.818, 319 224.733, 319 224.232 C 319 222.975, 314.417 221, 311.500 221 C 308.685 221, 305.051 222.477, 299.535 225.863 C 293.904 229.319, 280.587 234, 276.385 234 C 273.040 234, 261.922 236.364, 257.500 238.016 C 253.250 239.604, 246 243.532, 246 244.248 C 246 244.662, 245.521 245, 244.935 245 C 244.350 245, 242.662 246.428, 241.185 248.174 C 232.573 258.352, 231.316 269.233, 237.279 282 C 240.302 288.475, 250.258 297.974, 258 301.771 C 266.004 305.697, 274.443 306.608, 288.500 305.063 C 313.218 302.348, 333.229 297.135, 352.688 288.344 C 355.542 287.055, 358.354 286, 358.938 286 C 359.522 286, 360 285.622, 360 285.161 C 360 284.699, 361.090 283.824, 362.422 283.217 C 368.776 280.323, 378.314 270.145, 382.015 262.312 C 385.614 254.694, 386.793 244.111, 385.144 234.206 C 383.432 223.918, 376.246 210.457, 367.897 201.900 C 363.331 197.220, 341.556 182, 339.426 182 C 339.127 182, 335.163 180.200, 330.618 178 C 326.073 175.800, 321.689 174, 320.877 174 C 320.065 174, 318.972 173.642, 318.450 173.205 C 317.928 172.768, 315.025 171.663, 312 170.749 C 298.764 166.749, 296 165.808, 296 165.301 C 296 165.005, 296.874 162.003, 297.942 158.631 C 299.887 152.492, 303 138.239, 303 135.472 C 303 133.304, 301.357 133.700, 292.500 138 M 100 140.250 C 100 145.039, 102.144 155.487, 104.360 161.500 C 105.705 165.147, 105.688 165.533, 104.167 165.871 C 103.250 166.075, 101.459 166.637, 100.186 167.120 L 97.872 167.999 100.186 172.250 C 101.459 174.587, 102.725 176.725, 103 177 C 104.224 178.224, 107.698 183.669, 108.320 185.338 C 108.887 186.859, 109.672 187.062, 112.886 186.519 C 116.473 185.913, 116.939 186.115, 119.039 189.182 C 122.727 194.568, 138.056 209.239, 144 213.072 C 147.025 215.022, 152.425 218.004, 156 219.696 C 172.479 227.500, 179.537 229.272, 194.629 229.399 C 206.401 229.497, 206.819 229.426, 208.846 227 C 210.282 225.280, 210.944 223.063, 210.967 219.896 C 211.015 213.213, 208.089 210.362, 200.379 209.580 C 181.288 207.644, 165.930 202.760, 156.629 195.667 C 154.707 194.200, 152.766 192.992, 152.317 192.983 C 151.180 192.958, 139.018 180.354, 135.445 175.496 C 131.722 170.435, 130.457 168.362, 128.426 164 C 125.393 157.486, 125.019 156.510, 122.971 149.760 C 121.207 143.948, 120.552 142.939, 118.213 142.437 C 115.524 141.860, 110.421 139.993, 104.349 137.364 C 99.998 135.481, 100 135.480, 100 140.250 M 168.500 165.673 C 165.679 166.439, 162.989 169.550, 161.917 173.291 C 159.228 182.666, 166.587 190.426, 176.418 188.581 C 185.556 186.867, 188.755 173.141, 181.305 167.614 C 178.715 165.693, 172.115 164.692, 168.500 165.673 M 217.951 165.651 C 215.695 166.260, 211 173.960, 211 177.050 C 211 181.005, 216.253 187.677, 220.017 188.504 C 228.732 190.418, 235 185.443, 235 176.612 C 235 170.917, 232.999 167.710, 228.339 165.939 C 225.870 165, 220.871 164.862, 217.951 165.651 M 68.500 178.484 C 64.650 180.355, 60.938 181.911, 60.250 181.943 C 59.563 181.974, 59 182.406, 59 182.902 C 59 183.398, 57.763 184.292, 56.250 184.888 C 54.737 185.484, 52.616 186.540, 51.535 187.236 C 47.053 190.121, 38.387 196.429, 36.873 197.909 C 35.978 198.784, 34.403 200.231, 33.373 201.125 C 30.106 203.960, 26.363 208.400, 24.626 211.500 C 23.701 213.150, 22.040 216.008, 20.935 217.852 C 16.551 225.168, 14.594 233.031, 14.552 243.500 C 14.494 257.720, 17.057 264.009, 27.576 275.466 C 30.708 278.877, 39.179 284.449, 46.220 287.730 C 57.097 292.798, 60.027 294, 61.500 294 C 62.288 294, 64.410 294.632, 66.216 295.404 C 71.137 297.507, 82.401 300.289, 99.500 303.623 C 112.202 306.099, 134.559 306.173, 138.258 303.750 C 139.727 302.788, 141.373 302, 141.915 302 C 143.050 302, 150.258 297.167, 154.150 293.796 C 157.856 290.586, 163.744 281.563, 164.995 277.177 C 167.061 269.933, 167.216 265.546, 165.602 259.997 C 163.983 254.429, 157.548 245.136, 155.250 245.048 C 154.563 245.022, 154 244.560, 154 244.022 C 154 243.060, 141.815 236.869, 141.170 237.503 C 140.989 237.681, 141.609 238.999, 142.548 240.433 C 143.755 242.275, 144.112 244.312, 143.766 247.381 C 143.218 252.242, 140.764 255.290, 136.395 256.536 C 133.816 257.271, 133.738 257.402, 135.677 257.740 C 136.875 257.949, 138.393 258.768, 139.050 259.560 C 139.707 260.352, 140.794 261, 141.465 261 C 142.136 261, 143.490 262.495, 144.474 264.322 C 146.185 267.499, 146.186 267.805, 144.502 271.355 C 142.288 276.021, 134.948 282.367, 129.802 284.065 C 125.475 285.493, 111.174 284.329, 97.500 281.436 C 93.650 280.622, 88.250 279.479, 85.500 278.897 C 69.192 275.444, 48.314 266.122, 42.143 259.538 C 37.993 255.110, 35.005 248.556, 35.059 244 C 35.102 240.359, 37.247 233.231, 40.024 227.500 C 42.314 222.774, 53.922 210, 55.926 210 C 56.438 210, 57.471 209.438, 58.221 208.750 C 60.453 206.703, 62.894 205.328, 75.782 198.858 C 82.537 195.466, 87.937 192.417, 87.782 192.082 C 85.954 188.131, 77.276 175.010, 76.511 175.042 C 75.955 175.064, 72.350 176.614, 68.500 178.484 M 948.250 210.662 C 947.276 211.055, 947 221.186, 947 256.583 C 947 309.365, 946.325 306, 956.918 306 C 966.762 306, 966 308.261, 966 279.045 L 966 253.304 970.033 251.485 C 975.105 249.198, 981.514 249.165, 985.829 251.405 C 991.382 254.287, 992 257.250, 992 280.968 C 992 306.612, 991.839 306.259, 1003.293 305.793 L 1010.500 305.500 1010.500 279 C 1010.500 255.062, 1010.320 252.162, 1008.636 249 C 1004.322 240.901, 998.159 236.713, 988.188 235.108 C 981.776 234.075, 971.753 234.992, 968.104 236.945 C 966.022 238.059, 966 237.950, 966 226.490 C 966 215.528, 965.869 214.778, 963.545 212.455 C 961.479 210.388, 960.176 210.012, 955.295 210.079 C 952.108 210.122, 948.938 210.385, 948.250 210.662 M 411.250 216.655 L 409 217.139 409 259.115 L 409 301.091 411.455 303.545 C 413.545 305.636, 414.842 305.998, 420.205 305.985 C 423.667 305.976, 427.081 305.601, 427.792 305.150 C 428.822 304.496, 429.024 295.792, 428.792 262.200 C 428.456 213.763, 429.086 216.793, 419.280 216.401 C 416.101 216.274, 412.488 216.388, 411.250 216.655 M 532.500 217.880 L 529.500 218.523 529.500 255.511 L 529.500 292.500 532 297 C 533.893 300.407, 535.836 302.183, 540 304.313 C 545.094 306.919, 546.214 307.103, 555.180 306.813 C 565.948 306.465, 569.552 304.845, 571.312 299.563 C 572.594 295.719, 569.768 289.469, 567.221 290.515 C 564.410 291.668, 557.304 292.293, 554.629 291.622 C 549.266 290.276, 549 289.274, 549 270.429 L 549 253 558.045 253 C 566.316 253, 567.301 252.790, 569.545 250.545 C 572.150 247.941, 572.621 244.763, 571.025 240.565 C 570.063 238.036, 569.902 238, 559.525 238 L 549 238 549 231.649 C 549 228.156, 548.517 223.914, 547.927 222.222 C 546.343 217.678, 540.766 216.108, 532.500 217.880 M 84.232 222.228 C 82.985 222.830, 81.021 224.848, 79.868 226.714 C 76.137 232.751, 78.972 238.511, 88.038 243.314 C 95.802 247.427, 96.420 247.734, 99.500 249 C 101.150 249.678, 103.275 250.627, 104.223 251.108 C 106.919 252.477, 124.153 256.123, 126.377 255.795 C 128.129 255.536, 128.196 255.316, 126.924 254 C 125.139 252.154, 122.165 247.645, 119.667 243 C 118.632 241.075, 116.709 238.068, 115.393 236.317 C 114.077 234.566, 113 232.653, 113 232.067 C 113 231.480, 112.438 230.994, 111.750 230.987 C 110.502 230.975, 102.869 227.248, 95.720 223.161 C 91.622 220.819, 87.801 220.508, 84.232 222.228 M 475.500 234.645 C 463.710 236.005, 453.807 239.887, 450.099 244.602 C 448.083 247.164, 448 248.355, 448 274.635 C 448 307.509, 447.551 306.270, 459.293 305.793 L 466.500 305.500 466.767 279.192 L 467.033 252.884 470.741 251.335 C 475.541 249.329, 482.629 249.133, 486.797 250.891 C 492.542 253.314, 493 255.427, 493 279.496 L 493 301.091 495.500 303.591 C 497.750 305.841, 498.677 306.062, 504.750 305.796 L 511.500 305.500 511.767 279.545 L 512.035 253.591 509.419 248.245 C 506.636 242.556, 502.496 239.119, 495.500 236.688 C 491.188 235.190, 480.364 234.084, 475.500 234.645 M 607.226 235.123 C 595.804 237.001, 586.068 244.857, 582.135 255.369 C 579.148 263.352, 579.143 277.591, 582.124 285.712 C 585.296 294.353, 593.588 302.175, 602.491 304.924 C 610.859 307.509, 625.152 307.738, 632.983 305.412 C 642.880 302.473, 646.797 295.362, 641.750 289.496 L 639.500 286.881 633.914 289.439 C 619.841 295.882, 605.524 292.808, 600.041 282.164 C 599.379 280.880, 598.987 279.699, 599.169 279.541 C 599.351 279.382, 609.174 277.874, 620.998 276.188 C 641.120 273.320, 642.641 272.957, 644.748 270.506 C 651.732 262.387, 641.942 242.066, 628.697 237.191 C 622.162 234.785, 614.039 234.003, 607.226 235.123 M 684.091 235.084 C 674.964 236.265, 668.172 238.946, 663.794 243.095 L 660 246.690 660 274.345 C 660 307.550, 659.540 306.271, 671.293 305.793 L 678.500 305.500 678.766 279.403 L 679.033 253.306 681.766 251.996 C 683.270 251.275, 689.198 250.419, 694.940 250.093 L 705.380 249.500 706.266 246.065 C 708.573 237.128, 700.228 232.995, 684.091 235.084 M 743.500 234.645 C 731.710 236.005, 721.807 239.887, 718.099 244.602 C 716.083 247.164, 716 248.355, 716 274.635 C 716 307.509, 715.551 306.270, 727.293 305.793 L 734.500 305.500 734.767 279.192 L 735.033 252.884 738.741 251.335 C 743.541 249.329, 750.629 249.133, 754.797 250.891 C 760.542 253.314, 761 255.427, 761 279.496 L 761 301.091 763.500 303.591 C 765.750 305.841, 766.677 306.062, 772.750 305.796 L 779.500 305.500 779.767 279.545 L 780.035 253.591 777.419 248.245 C 774.636 242.556, 770.496 239.119, 763.500 236.688 C 759.188 235.190, 748.364 234.084, 743.500 234.645 M 814.920 234.949 C 806.241 236.534, 798.420 242.078, 796.064 248.315 C 794.558 252.299, 794.745 260.611, 796.411 263.800 C 799.876 270.433, 805.045 273.447, 819.036 276.994 C 829.929 279.755, 832 281.093, 832 285.368 C 832 290.823, 829.178 292.508, 820.130 292.457 C 813.693 292.421, 811.414 291.914, 805.734 289.256 L 798.986 286.099 796.993 288.238 C 795.655 289.674, 795 291.764, 795 294.600 C 795 298.054, 795.540 299.277, 797.969 301.320 C 803.903 306.313, 816.972 308.706, 828.998 307 C 837.473 305.798, 842.589 303.372, 846.830 298.541 C 850.684 294.151, 851.342 291.709, 850.831 283.682 C 850.129 272.669, 844.745 268.001, 827.473 263.434 C 821.988 261.984, 816.712 260.098, 815.750 259.244 C 813.388 257.146, 813.544 253.722, 816.108 251.405 C 819.313 248.509, 831.726 248.793, 838.774 251.924 C 843.854 254.181, 844.120 254.201, 846.024 252.478 C 847.390 251.242, 848 249.403, 848 246.519 C 848 241.545, 845.581 238.822, 839.144 236.551 C 833.826 234.675, 821.048 233.830, 814.920 234.949 M 887.874 234.976 C 879.797 236.029, 872.141 239.021, 868.316 242.618 L 865 245.736 865 286.868 C 865 335.499, 864.192 332.285, 876.293 331.793 L 883.500 331.500 883.778 318.328 L 884.057 305.156 887.272 306.078 C 892.532 307.587, 905.277 307.159, 911.135 305.277 C 918.707 302.844, 926.971 294.607, 929.973 286.500 C 932.700 279.136, 933.042 264.249, 930.658 256.653 C 925.613 240.575, 909.099 232.208, 887.874 234.976 M 1052.260 235.108 C 1031.926 238.495, 1020.678 257.305, 1025.424 279.984 C 1028.144 292.985, 1036.395 302.024, 1048.845 305.643 C 1057.129 308.052, 1074.956 307.220, 1081.277 304.130 C 1088.862 300.423, 1090.743 294.609, 1086.180 288.974 L 1084.335 286.696 1078.706 289.359 C 1068.328 294.269, 1056.548 293.857, 1050.010 288.355 C 1047.220 286.007, 1043.377 280.206, 1044.176 279.548 C 1044.354 279.401, 1054.175 277.867, 1066 276.138 C 1086.233 273.181, 1087.640 272.837, 1089.872 270.300 C 1091.981 267.904, 1092.176 266.961, 1091.637 261.799 C 1089.706 243.324, 1072.588 231.721, 1052.260 235.108 M 1129 235.037 C 1114.589 236.755, 1105.785 242.565, 1104.495 251.208 C 1104.142 253.569, 1103.999 266.003, 1104.177 278.840 C 1104.497 301.982, 1104.520 302.196, 1106.861 304.090 C 1108.579 305.480, 1110.803 306, 1115.029 306 C 1124.744 306, 1124 308.235, 1124 279.054 L 1124 253.321 1126.750 251.996 C 1128.263 251.267, 1134 250.466, 1139.500 250.216 C 1145.346 249.950, 1149.805 249.291, 1150.235 248.630 C 1151.718 246.348, 1151.046 239.351, 1149.180 237.663 C 1147.653 236.281, 1138.115 233.703, 1136.114 234.131 C 1135.776 234.204, 1132.575 234.611, 1129 235.037 M 1184.228 235.029 C 1172.756 236.678, 1164.172 243.143, 1159.101 253.954 C 1156.792 258.877, 1156.500 260.739, 1156.500 270.521 C 1156.500 280.948, 1156.676 281.900, 1159.771 288.185 C 1163.525 295.811, 1168.062 300.209, 1175.954 303.871 C 1180.627 306.039, 1183.275 306.505, 1192.770 306.831 C 1205.579 307.270, 1212.555 305.674, 1217.250 301.229 C 1220.890 297.783, 1221.045 292.331, 1217.595 289.089 C 1215.377 287.005, 1215.007 286.947, 1212.845 288.337 C 1204.939 293.417, 1191.530 294.094, 1183.744 289.806 C 1179.907 287.692, 1174.754 280.910, 1176.024 279.645 C 1176.286 279.384, 1185.857 277.821, 1197.293 276.172 C 1210.826 274.221, 1218.987 272.584, 1220.665 271.484 C 1223.146 269.858, 1223.228 269.497, 1222.796 262.030 C 1222.445 255.970, 1221.764 253.273, 1219.693 249.739 C 1213.082 238.458, 1199.518 232.832, 1184.228 235.029 M 606 251.170 C 602.448 253.551, 598 260.862, 598 264.320 C 598 265.773, 598.526 266.096, 600.250 265.700 C 601.487 265.416, 608.237 264.377, 615.250 263.391 C 627.394 261.684, 628 261.489, 628 259.285 C 628 258.012, 626.490 255.323, 624.645 253.310 C 621.647 250.038, 620.662 249.605, 615.395 249.236 C 610.449 248.889, 608.936 249.201, 606 251.170 M 891.500 249.651 C 890.400 249.905, 888.263 250.592, 886.750 251.177 L 884 252.243 884 270.596 L 884 288.949 886.950 290.474 C 891.375 292.762, 899.728 292.408, 904.412 289.734 C 909.521 286.816, 912.155 281.585, 912.751 273.171 C 913.509 262.455, 910.472 254.827, 904.162 251.598 C 901.064 250.014, 894.383 248.986, 891.500 249.651 M 1051.411 250.891 C 1047.202 253.458, 1044.181 257.517, 1043.406 261.648 C 1043.051 263.543, 1042.937 265.270, 1043.153 265.486 C 1043.369 265.702, 1050.173 264.912, 1058.273 263.730 C 1070.392 261.961, 1073 261.290, 1073 259.938 C 1073 257.491, 1068.790 251.706, 1065.970 250.279 C 1062.276 248.410, 1054.977 248.717, 1051.411 250.891 M 1182.984 250.849 C 1179.441 252.730, 1175.791 258.167, 1174.569 263.386 C 1173.929 266.119, 1174.042 266.243, 1176.697 265.730 C 1178.239 265.433, 1185.237 264.374, 1192.250 263.379 C 1199.263 262.383, 1205 261.201, 1205 260.752 C 1205 258.034, 1201.637 252.749, 1198.810 251.026 C 1194.614 248.467, 1187.619 248.390, 1182.984 250.849" stroke="none" fill="#fcfcfc" fill-rule="evenodd"/></svg>